<mxfile host="Electron" agent="Mozilla/5.0 (Windows NT 10.0; Win64; x64) AppleWebKit/537.36 (KHTML, like Gecko) draw.io/26.0.4 Chrome/128.0.6613.186 Electron/32.2.5 Safari/537.36" version="26.0.4">
  <diagram name="Page-1" id="YiYX2slveOFeRFz88qB3">
    <mxGraphModel dx="1022" dy="1700" grid="1" gridSize="10" guides="1" tooltips="1" connect="1" arrows="1" fold="1" page="1" pageScale="1" pageWidth="850" pageHeight="1100" math="0" shadow="0">
      <root>
        <mxCell id="0" />
        <mxCell id="1" parent="0" />
        <mxCell id="uAlLSoN4WmZoTJOYxpcr-12" style="edgeStyle=orthogonalEdgeStyle;rounded=0;orthogonalLoop=1;jettySize=auto;html=1;entryX=0.5;entryY=0;entryDx=0;entryDy=0;" edge="1" parent="1" source="uAlLSoN4WmZoTJOYxpcr-2" target="uAlLSoN4WmZoTJOYxpcr-3">
          <mxGeometry relative="1" as="geometry" />
        </mxCell>
        <mxCell id="uAlLSoN4WmZoTJOYxpcr-14" style="edgeStyle=orthogonalEdgeStyle;rounded=0;orthogonalLoop=1;jettySize=auto;html=1;" edge="1" parent="1" source="uAlLSoN4WmZoTJOYxpcr-2" target="uAlLSoN4WmZoTJOYxpcr-4">
          <mxGeometry relative="1" as="geometry" />
        </mxCell>
        <mxCell id="uAlLSoN4WmZoTJOYxpcr-2" value="quản lí hàng hóa&amp;nbsp;" style="ellipse;whiteSpace=wrap;html=1;" vertex="1" parent="1">
          <mxGeometry x="70" y="-98" width="120" height="80" as="geometry" />
        </mxCell>
        <mxCell id="uAlLSoN4WmZoTJOYxpcr-3" value="thêm, sửa, xóa thông tin hàng hóa&amp;nbsp;" style="rounded=1;whiteSpace=wrap;html=1;" vertex="1" parent="1">
          <mxGeometry y="60" width="120" height="60" as="geometry" />
        </mxCell>
        <mxCell id="uAlLSoN4WmZoTJOYxpcr-4" value="quản lí danh muc sản phầm" style="rounded=1;whiteSpace=wrap;html=1;" vertex="1" parent="1">
          <mxGeometry x="70" y="130" width="120" height="60" as="geometry" />
        </mxCell>
        <mxCell id="uAlLSoN4WmZoTJOYxpcr-5" value="quản lí nhà cung cấp&amp;nbsp;" style="rounded=1;whiteSpace=wrap;html=1;" vertex="1" parent="1">
          <mxGeometry x="150" y="60" width="120" height="60" as="geometry" />
        </mxCell>
        <mxCell id="uAlLSoN4WmZoTJOYxpcr-6" value="quản lí vị trí kho&amp;nbsp;" style="rounded=1;whiteSpace=wrap;html=1;" vertex="1" parent="1">
          <mxGeometry x="305" y="60" width="120" height="60" as="geometry" />
        </mxCell>
        <mxCell id="uAlLSoN4WmZoTJOYxpcr-37" style="edgeStyle=orthogonalEdgeStyle;rounded=0;orthogonalLoop=1;jettySize=auto;html=1;exitX=0;exitY=1;exitDx=0;exitDy=0;entryX=0.75;entryY=0;entryDx=0;entryDy=0;" edge="1" parent="1" source="uAlLSoN4WmZoTJOYxpcr-7" target="uAlLSoN4WmZoTJOYxpcr-6">
          <mxGeometry relative="1" as="geometry">
            <Array as="points">
              <mxPoint x="395" y="-30" />
            </Array>
          </mxGeometry>
        </mxCell>
        <mxCell id="uAlLSoN4WmZoTJOYxpcr-7" value="quản lí kho hàng" style="ellipse;whiteSpace=wrap;html=1;" vertex="1" parent="1">
          <mxGeometry x="380" y="-98" width="120" height="80" as="geometry" />
        </mxCell>
        <mxCell id="uAlLSoN4WmZoTJOYxpcr-9" value="quản lí hàng tồn kho" style="rounded=1;whiteSpace=wrap;html=1;" vertex="1" parent="1">
          <mxGeometry x="370" y="130" width="120" height="60" as="geometry" />
        </mxCell>
        <mxCell id="uAlLSoN4WmZoTJOYxpcr-10" value="quản lí xuất nhập kho" style="rounded=1;whiteSpace=wrap;html=1;" vertex="1" parent="1">
          <mxGeometry x="460" y="60" width="120" height="60" as="geometry" />
        </mxCell>
        <mxCell id="uAlLSoN4WmZoTJOYxpcr-20" style="edgeStyle=orthogonalEdgeStyle;rounded=0;orthogonalLoop=1;jettySize=auto;html=1;entryX=0.5;entryY=0;entryDx=0;entryDy=0;" edge="1" parent="1" source="uAlLSoN4WmZoTJOYxpcr-19" target="uAlLSoN4WmZoTJOYxpcr-2">
          <mxGeometry relative="1" as="geometry" />
        </mxCell>
        <mxCell id="uAlLSoN4WmZoTJOYxpcr-30" style="edgeStyle=orthogonalEdgeStyle;rounded=0;orthogonalLoop=1;jettySize=auto;html=1;exitX=0.5;exitY=1;exitDx=0;exitDy=0;entryX=0.5;entryY=0;entryDx=0;entryDy=0;" edge="1" parent="1" source="uAlLSoN4WmZoTJOYxpcr-19" target="uAlLSoN4WmZoTJOYxpcr-7">
          <mxGeometry relative="1" as="geometry" />
        </mxCell>
        <mxCell id="uAlLSoN4WmZoTJOYxpcr-31" style="edgeStyle=orthogonalEdgeStyle;rounded=0;orthogonalLoop=1;jettySize=auto;html=1;exitX=1;exitY=0.5;exitDx=0;exitDy=0;entryX=0.597;entryY=0.022;entryDx=0;entryDy=0;entryPerimeter=0;" edge="1" parent="1" source="uAlLSoN4WmZoTJOYxpcr-19" target="uAlLSoN4WmZoTJOYxpcr-26">
          <mxGeometry relative="1" as="geometry">
            <mxPoint x="720" y="-100" as="targetPoint" />
          </mxGeometry>
        </mxCell>
        <mxCell id="uAlLSoN4WmZoTJOYxpcr-19" value="quản lí kho bãi&amp;nbsp;" style="ellipse;whiteSpace=wrap;html=1;" vertex="1" parent="1">
          <mxGeometry x="360" y="-300" width="160" height="80" as="geometry" />
        </mxCell>
        <mxCell id="uAlLSoN4WmZoTJOYxpcr-24" style="edgeStyle=orthogonalEdgeStyle;rounded=0;orthogonalLoop=1;jettySize=auto;html=1;entryX=0.41;entryY=-0.003;entryDx=0;entryDy=0;entryPerimeter=0;" edge="1" parent="1" source="uAlLSoN4WmZoTJOYxpcr-2" target="uAlLSoN4WmZoTJOYxpcr-5">
          <mxGeometry relative="1" as="geometry" />
        </mxCell>
        <mxCell id="uAlLSoN4WmZoTJOYxpcr-39" style="edgeStyle=orthogonalEdgeStyle;rounded=0;orthogonalLoop=1;jettySize=auto;html=1;exitX=0;exitY=0.5;exitDx=0;exitDy=0;entryX=0.5;entryY=0;entryDx=0;entryDy=0;" edge="1" parent="1" source="uAlLSoN4WmZoTJOYxpcr-25" target="uAlLSoN4WmZoTJOYxpcr-27">
          <mxGeometry relative="1" as="geometry" />
        </mxCell>
        <mxCell id="uAlLSoN4WmZoTJOYxpcr-25" value="đăng nhập&lt;div&gt;đăng kí&amp;nbsp;&lt;/div&gt;" style="rounded=1;whiteSpace=wrap;html=1;" vertex="1" parent="1">
          <mxGeometry x="650" y="50" width="120" height="60" as="geometry" />
        </mxCell>
        <mxCell id="uAlLSoN4WmZoTJOYxpcr-38" style="edgeStyle=orthogonalEdgeStyle;rounded=0;orthogonalLoop=1;jettySize=auto;html=1;exitX=0.5;exitY=1;exitDx=0;exitDy=0;entryX=0.5;entryY=0;entryDx=0;entryDy=0;" edge="1" parent="1" source="uAlLSoN4WmZoTJOYxpcr-26" target="uAlLSoN4WmZoTJOYxpcr-25">
          <mxGeometry relative="1" as="geometry" />
        </mxCell>
        <mxCell id="uAlLSoN4WmZoTJOYxpcr-26" value="quản lí tài khoản" style="ellipse;whiteSpace=wrap;html=1;" vertex="1" parent="1">
          <mxGeometry x="650" y="-90" width="120" height="80" as="geometry" />
        </mxCell>
        <mxCell id="uAlLSoN4WmZoTJOYxpcr-27" value="nhân viên" style="rounded=1;whiteSpace=wrap;html=1;" vertex="1" parent="1">
          <mxGeometry x="560" y="130" width="120" height="60" as="geometry" />
        </mxCell>
        <mxCell id="uAlLSoN4WmZoTJOYxpcr-28" value="quản lí&amp;nbsp;" style="rounded=1;whiteSpace=wrap;html=1;" vertex="1" parent="1">
          <mxGeometry x="90" y="-400" width="120" height="60" as="geometry" />
        </mxCell>
        <mxCell id="uAlLSoN4WmZoTJOYxpcr-32" value="quản lí&amp;nbsp;" style="rounded=1;whiteSpace=wrap;html=1;" vertex="1" parent="1">
          <mxGeometry x="730" y="130" width="120" height="60" as="geometry" />
        </mxCell>
        <mxCell id="uAlLSoN4WmZoTJOYxpcr-33" style="edgeStyle=orthogonalEdgeStyle;rounded=0;orthogonalLoop=1;jettySize=auto;html=1;exitX=0.5;exitY=1;exitDx=0;exitDy=0;entryX=0.583;entryY=-0.05;entryDx=0;entryDy=0;entryPerimeter=0;" edge="1" parent="1" source="uAlLSoN4WmZoTJOYxpcr-7" target="uAlLSoN4WmZoTJOYxpcr-9">
          <mxGeometry relative="1" as="geometry" />
        </mxCell>
        <mxCell id="uAlLSoN4WmZoTJOYxpcr-36" style="edgeStyle=orthogonalEdgeStyle;rounded=0;orthogonalLoop=1;jettySize=auto;html=1;exitX=1;exitY=1;exitDx=0;exitDy=0;entryX=0.18;entryY=0.05;entryDx=0;entryDy=0;entryPerimeter=0;" edge="1" parent="1" source="uAlLSoN4WmZoTJOYxpcr-7" target="uAlLSoN4WmZoTJOYxpcr-10">
          <mxGeometry relative="1" as="geometry" />
        </mxCell>
        <mxCell id="uAlLSoN4WmZoTJOYxpcr-40" style="edgeStyle=orthogonalEdgeStyle;rounded=0;orthogonalLoop=1;jettySize=auto;html=1;exitX=1;exitY=0.5;exitDx=0;exitDy=0;entryX=0.577;entryY=-0.037;entryDx=0;entryDy=0;entryPerimeter=0;" edge="1" parent="1" source="uAlLSoN4WmZoTJOYxpcr-25" target="uAlLSoN4WmZoTJOYxpcr-32">
          <mxGeometry relative="1" as="geometry" />
        </mxCell>
      </root>
    </mxGraphModel>
  </diagram>
</mxfile>
